<?xml version="1.0" standalone="no"?>
<!DOCTYPE svg PUBLIC "-//W3C//DTD SVG 20010904//EN"
 "http://www.w3.org/TR/2001/REC-SVG-20010904/DTD/svg10.dtd">
<svg version="1.0" xmlns="http://www.w3.org/2000/svg"
 width="512.000000pt" height="512.000000pt" viewBox="0 0 512.000000 512.000000"
 preserveAspectRatio="xMidYMid meet">

<g transform="translate(0.000000,512.000000) scale(0.100000,-0.100000)"
fill="#000000" stroke="none">
<path d="M2433 4575 c-107 -23 -189 -70 -278 -160 -91 -90 -137 -171 -160
-282 -29 -136 -15 -244 50 -378 34 -72 57 -103 112 -155 37 -36 78 -72 90 -80
22 -15 21 -17 -272 -575 -162 -308 -299 -560 -304 -560 -5 0 -173 176 -373
390 l-365 390 66 71 c169 182 207 429 99 652 -44 92 -168 216 -260 260 -165
80 -351 80 -516 0 -92 -44 -216 -168 -260 -260 -112 -231 -64 -498 120 -674
57 -55 109 -90 172 -115 22 -9 44 -23 48 -30 4 -8 86 -543 183 -1189 97 -646
181 -1193 188 -1215 15 -50 75 -111 124 -124 53 -15 3273 -15 3326 0 49 13
109 74 124 124 7 22 91 569 188 1215 97 646 179 1181 183 1189 4 7 26 21 48
30 128 52 248 171 307 306 23 54 47 169 47 230 0 75 -25 178 -62 253 -44 92
-168 216 -260 260 -165 80 -351 80 -516 0 -92 -44 -216 -168 -260 -260 -108
-223 -70 -470 99 -652 l66 -71 -365 -390 c-200 -214 -368 -390 -373 -390 -5 0
-142 252 -304 560 -293 558 -294 560 -272 575 12 8 53 44 90 80 109 103 177
264 177 414 -1 152 -59 286 -175 401 -148 149 -331 204 -532 160z m207 -407
c132 -67 132 -249 0 -315 -24 -13 -60 -23 -80 -23 -20 0 -56 10 -80 23 -132
66 -132 248 0 315 24 12 60 22 80 22 20 0 56 -10 80 -22z m-1980 -380 c132
-67 132 -249 0 -315 -24 -13 -60 -23 -80 -23 -20 0 -56 10 -80 23 -132 66
-132 248 0 315 24 12 60 22 80 22 20 0 56 -10 80 -22z m3960 0 c132 -67 132
-249 0 -315 -24 -13 -60 -23 -80 -23 -20 0 -56 10 -80 23 -132 66 -132 248 0
315 24 12 60 22 80 22 20 0 56 -10 80 -22z m-1726 -1226 c181 -345 338 -638
348 -651 31 -41 86 -72 138 -78 97 -11 115 4 505 422 193 207 351 370 353 363
1 -7 -54 -387 -123 -843 -69 -456 -125 -833 -125 -837 0 -5 -643 -8 -1430 -8
-786 0 -1430 3 -1430 8 0 4 -56 381 -125 837 -69 456 -124 836 -123 843 2 7
161 -156 353 -362 370 -397 402 -426 485 -426 46 0 134 44 158 78 11 15 167
309 348 654 181 346 331 628 334 628 3 0 153 -282 334 -628z"/>
</g>
</svg>
